<mxfile host="app.diagrams.net" modified="2024-03-26T08:58:39.261Z" agent="Mozilla/5.0 (Windows NT 10.0; Win64; x64) AppleWebKit/537.36 (KHTML, like Gecko) Chrome/122.0.0.0 Safari/537.36 Edg/122.0.0.0" etag="C2CvoVCX2o7xYCqBxzmi" version="24.1.0" type="device">
  <diagram id="L--b_9gMSkBdX0MUxDAv" name="log">
    <mxGraphModel dx="1997" dy="1212" grid="0" gridSize="10" guides="1" tooltips="1" connect="1" arrows="1" fold="1" page="1" pageScale="1" pageWidth="3300" pageHeight="2339" background="#FFFFFF" math="0" shadow="0">
      <root>
        <mxCell id="0" />
        <mxCell id="1" parent="0" />
        <mxCell id="AvujdgIwByvLGL1IsHuE-1" value="" style="group" parent="1" vertex="1" connectable="0">
          <mxGeometry x="386" y="435" width="784" height="577" as="geometry" />
        </mxCell>
        <mxCell id="AvujdgIwByvLGL1IsHuE-2" value="&lt;font style=&quot;font-size: 18px;&quot;&gt;&lt;i&gt;Log&lt;/i&gt;&lt;/font&gt;" style="swimlane;fontStyle=1;align=center;verticalAlign=top;childLayout=stackLayout;horizontal=1;startSize=26;horizontalStack=0;resizeParent=1;resizeParentMax=0;resizeLast=0;collapsible=1;marginBottom=0;whiteSpace=wrap;html=1;" parent="AvujdgIwByvLGL1IsHuE-1" vertex="1">
          <mxGeometry x="6" y="38" width="778" height="539" as="geometry" />
        </mxCell>
        <mxCell id="AvujdgIwByvLGL1IsHuE-3" value="&lt;div&gt;&lt;span style=&quot;font-size: 18px;&quot;&gt;- dir_name[128]:&amp;nbsp;&lt;/span&gt;&lt;span style=&quot;font-size: 18px; background-color: initial;&quot;&gt;char&amp;nbsp; &amp;nbsp;&lt;/span&gt;&lt;span style=&quot;font-size: 18px; background-color: initial;&quot;&gt;//路径名&lt;/span&gt;&lt;/div&gt;&lt;div&gt;&lt;span style=&quot;font-size: 18px; background-color: initial;&quot;&gt;- log_name[128]:&amp;nbsp;&lt;/span&gt;&lt;span style=&quot;font-size: 18px; background-color: initial;&quot;&gt;char&amp;nbsp; &amp;nbsp;&lt;/span&gt;&lt;span style=&quot;background-color: initial; font-size: 18px;&quot;&gt;//log文件名&lt;/span&gt;&lt;/div&gt;&lt;div&gt;&lt;span style=&quot;font-size: 18px;&quot;&gt;- m_split_lines:&amp;nbsp;&lt;/span&gt;&lt;span style=&quot;font-size: 18px; background-color: initial;&quot;&gt;int&lt;/span&gt;&lt;span style=&quot;font-size: 18px; background-color: initial;&quot;&gt;&amp;nbsp; &amp;nbsp;&lt;/span&gt;&lt;span style=&quot;font-size: 18px; background-color: initial;&quot;&gt;//日志最大行数&lt;/span&gt;&lt;/div&gt;&lt;div&gt;&lt;span style=&quot;font-size: 18px; background-color: initial;&quot;&gt;- m_log_buf_size:&lt;/span&gt;&lt;span style=&quot;font-size: 18px; background-color: initial;&quot;&gt;&amp;nbsp;&lt;/span&gt;&lt;span style=&quot;font-size: 18px; background-color: initial;&quot;&gt;int&lt;/span&gt;&lt;span style=&quot;font-size: 18px; background-color: initial;&quot;&gt;&amp;nbsp; &amp;nbsp;&lt;/span&gt;&lt;span style=&quot;background-color: initial; font-size: 18px;&quot;&gt;//日志缓冲区大小&lt;/span&gt;&lt;/div&gt;&lt;div&gt;&lt;span style=&quot;font-size: 18px;&quot;&gt;- m_count:&amp;nbsp;&lt;/span&gt;&lt;span style=&quot;font-size: 18px; background-color: initial;&quot;&gt;&amp;nbsp;&lt;/span&gt;&lt;span style=&quot;font-size: 18px; background-color: initial;&quot;&gt;long long&lt;/span&gt;&lt;span style=&quot;font-size: 18px; background-color: initial;&quot;&gt;&amp;nbsp; &amp;nbsp;&lt;/span&gt;&lt;span style=&quot;font-size: 18px; background-color: initial;&quot;&gt;//日志行数记录&lt;/span&gt;&lt;/div&gt;&lt;div&gt;&lt;span style=&quot;font-size: 18px; background-color: initial;&quot;&gt;- m_today:&amp;nbsp;&lt;/span&gt;&lt;span style=&quot;font-size: 18px; background-color: initial;&quot;&gt;int&amp;nbsp; &amp;nbsp;&lt;/span&gt;&lt;span style=&quot;background-color: initial; font-size: 18px;&quot;&gt;//因为按天分类,记录当前时间是那一天&lt;/span&gt;&lt;/div&gt;&lt;div&gt;&lt;span style=&quot;font-size: 18px;&quot;&gt;- m_fp:&amp;nbsp;&lt;/span&gt;&lt;span style=&quot;font-size: 18px; background-color: initial;&quot;&gt;FILE *&amp;nbsp; &amp;nbsp;&lt;/span&gt;&lt;span style=&quot;font-size: 18px; background-color: initial;&quot;&gt;//打开log的文件指针&lt;/span&gt;&lt;/div&gt;&lt;div&gt;&lt;span style=&quot;font-size: 18px;&quot;&gt;- m_buf:&amp;nbsp;&lt;/span&gt;&lt;span style=&quot;font-size: 18px; background-color: initial;&quot;&gt;char *&lt;/span&gt;&lt;/div&gt;&lt;div&gt;&lt;span style=&quot;font-size: 18px;&quot;&gt;- m_log_queue:&amp;nbsp;&lt;/span&gt;&lt;span style=&quot;font-size: 18px; background-color: initial;&quot;&gt;block_queue&amp;lt;string&amp;gt; *&amp;nbsp; &amp;nbsp;&lt;/span&gt;&lt;span style=&quot;font-size: 18px; background-color: initial;&quot;&gt;//阻塞队列&lt;/span&gt;&lt;/div&gt;&lt;div&gt;&lt;span style=&quot;font-size: 18px;&quot;&gt;- m_is_async:&amp;nbsp;&lt;/span&gt;&lt;span style=&quot;font-size: 18px; background-color: initial;&quot;&gt;bool&amp;nbsp; &amp;nbsp;&lt;/span&gt;&lt;span style=&quot;font-size: 18px; background-color: initial;&quot;&gt;//是否同步标志位&lt;/span&gt;&lt;/div&gt;&lt;div&gt;&lt;span style=&quot;font-size: 18px;&quot;&gt;- m_mutex:&amp;nbsp;&lt;/span&gt;&lt;span style=&quot;font-size: 18px; background-color: initial;&quot;&gt;locker&lt;/span&gt;&lt;/div&gt;&lt;div&gt;&lt;span style=&quot;font-size: 18px;&quot;&gt;- m_close_log:&amp;nbsp;&lt;/span&gt;&lt;span style=&quot;font-size: 18px; background-color: initial;&quot;&gt;int&amp;nbsp; &amp;nbsp;&lt;/span&gt;&lt;span style=&quot;font-size: 18px; background-color: initial;&quot;&gt;//关闭日志&lt;/span&gt;&lt;/div&gt;" style="text;strokeColor=none;fillColor=default;align=left;verticalAlign=top;spacingLeft=4;spacingRight=4;overflow=hidden;rotatable=0;points=[[0,0.5],[1,0.5]];portConstraint=eastwest;whiteSpace=wrap;html=1;" parent="AvujdgIwByvLGL1IsHuE-2" vertex="1">
          <mxGeometry y="26" width="778" height="279" as="geometry" />
        </mxCell>
        <mxCell id="AvujdgIwByvLGL1IsHuE-4" value="&lt;div&gt;&lt;span style=&quot;font-size: 18px;&quot;&gt;- Log()&amp;nbsp; &amp;nbsp;// 私有化是为了实现单例模式&lt;/span&gt;&lt;/div&gt;&lt;div&gt;&lt;span style=&quot;font-size: 18px;&quot;&gt;- virtual ~Log()&amp;nbsp; &amp;nbsp;&lt;/span&gt;&lt;span style=&quot;font-size: 18px; background-color: initial;&quot;&gt;// 私有化是为了实现单例模式&lt;/span&gt;&lt;/div&gt;&lt;div&gt;&lt;span style=&quot;font-size: 18px;&quot;&gt;- async_write_log():&amp;nbsp;&lt;/span&gt;&lt;span style=&quot;font-size: 18px; background-color: initial;&quot;&gt;&amp;nbsp;&lt;/span&gt;&lt;span style=&quot;font-size: 18px; background-color: initial;&quot;&gt;void *&lt;/span&gt;&lt;/div&gt;&lt;div&gt;&lt;span style=&quot;font-size: 18px; background-color: initial;&quot;&gt;+&amp;nbsp;&lt;/span&gt;&lt;span style=&quot;background-color: initial; font-size: 18px;&quot;&gt;get_instance():&amp;nbsp;&lt;/span&gt;&lt;span style=&quot;font-size: 18px; background-color: initial;&quot;&gt;static Log *&lt;/span&gt;&lt;/div&gt;&lt;div&gt;&lt;span style=&quot;font-size: 18px;&quot;&gt;+&amp;nbsp;&lt;/span&gt;&lt;span style=&quot;background-color: initial; font-size: 18px;&quot;&gt;flush_log_thread(void *args):&amp;nbsp;&lt;/span&gt;&lt;span style=&quot;font-size: 18px; background-color: initial;&quot;&gt;static void *&lt;/span&gt;&lt;/div&gt;&lt;div&gt;&lt;span style=&quot;background-color: initial; font-size: 18px;&quot;&gt;&lt;div style=&quot;&quot;&gt;+ init(const char *file_name, int close_log, int log_buf_size = 8192, int split_lines = 5000000, int max_queue_size = 0):&amp;nbsp;&lt;span style=&quot;background-color: initial;&quot;&gt;bool&lt;/span&gt;&lt;/div&gt;&lt;/span&gt;&lt;span style=&quot;background-color: initial; font-size: 18px;&quot;&gt;&lt;div style=&quot;&quot;&gt;+ write_log(int level, const char *format, ...):&amp;nbsp;&lt;span style=&quot;background-color: initial;&quot;&gt;void&lt;/span&gt;&lt;/div&gt;&lt;/span&gt;&lt;span style=&quot;background-color: initial; font-size: 18px;&quot;&gt;&lt;div style=&quot;&quot;&gt;+ flush(void):&amp;nbsp;&lt;span style=&quot;background-color: initial;&quot;&gt;void&lt;/span&gt;&lt;/div&gt;&lt;/span&gt;&lt;/div&gt;" style="html=1;whiteSpace=wrap;align=left;" parent="AvujdgIwByvLGL1IsHuE-2" vertex="1">
          <mxGeometry y="305" width="778" height="234" as="geometry" />
        </mxCell>
        <mxCell id="AvujdgIwByvLGL1IsHuE-5" value="&lt;font style=&quot;font-size: 18px;&quot;&gt;// 日志类定义&amp;nbsp; &amp;nbsp;log.h&lt;/font&gt;" style="text;html=1;align=center;verticalAlign=middle;resizable=0;points=[];autosize=1;strokeColor=none;fillColor=none;" parent="AvujdgIwByvLGL1IsHuE-1" vertex="1">
          <mxGeometry x="6" width="177" height="34" as="geometry" />
        </mxCell>
        <mxCell id="Vr8ciH7Do-Bv3Ef3Z92q-1" value="" style="group" parent="1" vertex="1" connectable="0">
          <mxGeometry x="1419" y="432" width="784" height="577" as="geometry" />
        </mxCell>
        <mxCell id="Vr8ciH7Do-Bv3Ef3Z92q-2" value="&lt;font style=&quot;font-size: 18px;&quot;&gt;&lt;i&gt;block_queue&lt;/i&gt;&lt;/font&gt;" style="swimlane;fontStyle=1;align=center;verticalAlign=top;childLayout=stackLayout;horizontal=1;startSize=26;horizontalStack=0;resizeParent=1;resizeParentMax=0;resizeLast=0;collapsible=1;marginBottom=0;whiteSpace=wrap;html=1;" parent="Vr8ciH7Do-Bv3Ef3Z92q-1" vertex="1">
          <mxGeometry x="6" y="38" width="778" height="490" as="geometry" />
        </mxCell>
        <mxCell id="Vr8ciH7Do-Bv3Ef3Z92q-3" value="&lt;div&gt;&lt;span style=&quot;font-size: 18px;&quot;&gt;- m_mutex:&amp;nbsp;&lt;/span&gt;&lt;span style=&quot;font-size: 18px; background-color: initial;&quot;&gt;locker&lt;/span&gt;&lt;/div&gt;&lt;div&gt;&lt;span style=&quot;font-size: 18px; background-color: initial;&quot;&gt;- m_cond:&amp;nbsp;&lt;/span&gt;&lt;span style=&quot;font-size: 18px; background-color: initial;&quot;&gt;cond&lt;/span&gt;&lt;/div&gt;&lt;div&gt;&lt;span style=&quot;font-size: 18px;&quot;&gt;- m_array:&amp;nbsp;&lt;/span&gt;&lt;span style=&quot;font-size: 18px; background-color: initial;&quot;&gt;T *&lt;/span&gt;&lt;/div&gt;&lt;div&gt;&lt;span style=&quot;font-size: 18px;&quot;&gt;- m_size:&amp;nbsp;&lt;/span&gt;&lt;span style=&quot;font-size: 18px; background-color: initial;&quot;&gt;int&lt;/span&gt;&lt;span style=&quot;font-size: 18px; background-color: initial;&quot;&gt;&amp;nbsp;&lt;/span&gt;&lt;/div&gt;&lt;div&gt;&lt;span style=&quot;font-size: 18px; background-color: initial;&quot;&gt;- m_max_size:&amp;nbsp;&lt;/span&gt;&lt;span style=&quot;font-size: 18px; background-color: initial;&quot;&gt;int&lt;/span&gt;&lt;span style=&quot;font-size: 18px; background-color: initial;&quot;&gt;&amp;nbsp;&lt;/span&gt;&lt;/div&gt;&lt;div&gt;&lt;span style=&quot;font-size: 18px;&quot;&gt;- m_front:&amp;nbsp;&lt;/span&gt;&lt;span style=&quot;font-size: 18px; background-color: initial;&quot;&gt;int&lt;/span&gt;&lt;/div&gt;&lt;div&gt;&lt;span style=&quot;font-size: 18px;&quot;&gt;- m_back:&amp;nbsp;&lt;/span&gt;&lt;span style=&quot;font-size: 18px; background-color: initial;&quot;&gt;int&lt;/span&gt;&lt;/div&gt;" style="text;strokeColor=none;fillColor=default;align=left;verticalAlign=top;spacingLeft=4;spacingRight=4;overflow=hidden;rotatable=0;points=[[0,0.5],[1,0.5]];portConstraint=eastwest;whiteSpace=wrap;html=1;" parent="Vr8ciH7Do-Bv3Ef3Z92q-2" vertex="1">
          <mxGeometry y="26" width="778" height="179" as="geometry" />
        </mxCell>
        <mxCell id="Vr8ciH7Do-Bv3Ef3Z92q-4" value="&lt;span style=&quot;font-size: 18px;&quot;&gt;+ block_queue(int max_size = 1000)&amp;nbsp; &amp;nbsp;// 构造函数&lt;/span&gt;&lt;div&gt;&lt;span style=&quot;font-size: 18px;&quot;&gt;+ clear():&amp;nbsp;&lt;/span&gt;&lt;span style=&quot;font-size: 18px; background-color: initial;&quot;&gt;void&lt;/span&gt;&lt;span style=&quot;font-size: 18px; background-color: initial;&quot;&gt;&amp;nbsp;&lt;/span&gt;&lt;br&gt;&lt;/div&gt;&lt;div&gt;&lt;span style=&quot;background-color: initial;&quot;&gt;&lt;span style=&quot;font-size: 18px;&quot;&gt;+ ~block_queue()&lt;/span&gt;&lt;/span&gt;&lt;/div&gt;&lt;div&gt;&lt;span style=&quot;background-color: initial;&quot;&gt;&lt;div style=&quot;font-size: 18px;&quot;&gt;+ full():&amp;nbsp;&lt;span style=&quot;background-color: initial;&quot;&gt;bool&lt;/span&gt;&lt;span style=&quot;background-color: initial;&quot;&gt;&amp;nbsp; &amp;nbsp;&lt;/span&gt;&lt;span style=&quot;background-color: initial;&quot;&gt;//判断队列是否满了&lt;/span&gt;&lt;/div&gt;&lt;div style=&quot;&quot;&gt;&lt;span style=&quot;background-color: initial;&quot;&gt;&lt;span style=&quot;font-size: 18px;&quot;&gt;+ empty():&amp;nbsp;&lt;/span&gt;&lt;/span&gt;&lt;span style=&quot;font-size: 18px; background-color: initial;&quot;&gt;bool&lt;/span&gt;&lt;span style=&quot;font-size: 18px; background-color: initial;&quot;&gt;&amp;nbsp; &amp;nbsp;// 判断队列是否为空&lt;/span&gt;&lt;span style=&quot;background-color: initial;&quot;&gt;&lt;br&gt;&lt;/span&gt;&lt;/div&gt;&lt;div style=&quot;&quot;&gt;&lt;span style=&quot;background-color: initial;&quot;&gt;&lt;span style=&quot;font-size: 18px;&quot;&gt;+ front(T &amp;amp;value):&amp;nbsp;&lt;/span&gt;&lt;/span&gt;&lt;span style=&quot;font-size: 18px; background-color: initial;&quot;&gt;bool&amp;nbsp; &amp;nbsp;// 返回队首元素&lt;/span&gt;&lt;span style=&quot;background-color: initial;&quot;&gt;&lt;br&gt;&lt;/span&gt;&lt;/div&gt;&lt;div style=&quot;&quot;&gt;&lt;span style=&quot;background-color: initial;&quot;&gt;&lt;span style=&quot;font-size: 18px;&quot;&gt;+ back(T &amp;amp;value):&amp;nbsp;&lt;/span&gt;&lt;/span&gt;&lt;span style=&quot;font-size: 18px; background-color: initial;&quot;&gt;bool&amp;nbsp; &amp;nbsp;// 返回队尾元素&lt;/span&gt;&lt;span style=&quot;background-color: initial;&quot;&gt;&lt;br&gt;&lt;/span&gt;&lt;/div&gt;&lt;div style=&quot;&quot;&gt;&lt;span style=&quot;background-color: initial;&quot;&gt;&lt;span style=&quot;font-size: 18px;&quot;&gt;+ size():&amp;nbsp;&lt;/span&gt;&lt;/span&gt;&lt;span style=&quot;font-size: 18px; background-color: initial;&quot;&gt;int&amp;nbsp; &amp;nbsp;// 返回当前队列大小&lt;/span&gt;&lt;span style=&quot;background-color: initial;&quot;&gt;&lt;br&gt;&lt;/span&gt;&lt;/div&gt;&lt;div style=&quot;&quot;&gt;&lt;span style=&quot;background-color: initial;&quot;&gt;&lt;span style=&quot;font-size: 18px;&quot;&gt;+ max_size():&amp;nbsp;&lt;/span&gt;&lt;/span&gt;&lt;span style=&quot;font-size: 18px; background-color: initial;&quot;&gt;int&amp;nbsp; &amp;nbsp;// 返回队列最大可容纳元素数量&lt;/span&gt;&lt;span style=&quot;background-color: initial;&quot;&gt;&lt;br&gt;&lt;/span&gt;&lt;/div&gt;&lt;div style=&quot;&quot;&gt;&lt;span style=&quot;background-color: initial;&quot;&gt;&lt;span style=&quot;font-size: 18px;&quot;&gt;+ push(const T &amp;amp;item):&amp;nbsp;&lt;/span&gt;&lt;/span&gt;&lt;span style=&quot;font-size: 18px; background-color: initial;&quot;&gt;bool&amp;nbsp; &amp;nbsp;// 往队列添加元素&lt;/span&gt;&lt;span style=&quot;background-color: initial;&quot;&gt;&lt;br&gt;&lt;/span&gt;&lt;/div&gt;&lt;div style=&quot;&quot;&gt;&lt;span style=&quot;background-color: initial;&quot;&gt;&lt;span style=&quot;font-size: 18px;&quot;&gt;+ pop(T &amp;amp;item):&amp;nbsp;&lt;/span&gt;&lt;/span&gt;&lt;span style=&quot;font-size: 18px; background-color: initial;&quot;&gt;bool&amp;nbsp; &amp;nbsp;// 弹出队头元素&lt;/span&gt;&lt;span style=&quot;background-color: initial;&quot;&gt;&lt;br&gt;&lt;/span&gt;&lt;/div&gt;&lt;div style=&quot;&quot;&gt;&lt;span style=&quot;background-color: initial;&quot;&gt;&lt;span style=&quot;font-size: 18px;&quot;&gt;+ pop(T &amp;amp;item, int ms_timeout):&amp;nbsp;&lt;/span&gt;&lt;/span&gt;&lt;span style=&quot;font-size: 18px; background-color: initial;&quot;&gt;bool&amp;nbsp; &amp;nbsp;// 弹出队头元素，增加了超时处理&lt;/span&gt;&lt;span style=&quot;background-color: initial;&quot;&gt;&lt;br&gt;&lt;/span&gt;&lt;/div&gt;&lt;/span&gt;&lt;/div&gt;" style="html=1;whiteSpace=wrap;align=left;" parent="Vr8ciH7Do-Bv3Ef3Z92q-2" vertex="1">
          <mxGeometry y="205" width="778" height="285" as="geometry" />
        </mxCell>
        <mxCell id="Vr8ciH7Do-Bv3Ef3Z92q-5" value="&lt;font style=&quot;font-size: 18px;&quot;&gt;// 阻塞队列类实现&amp;nbsp; &amp;nbsp;block_queue.h&lt;/font&gt;" style="text;html=1;align=center;verticalAlign=middle;resizable=0;points=[];autosize=1;strokeColor=none;fillColor=none;" parent="Vr8ciH7Do-Bv3Ef3Z92q-1" vertex="1">
          <mxGeometry y="-3" width="291" height="34" as="geometry" />
        </mxCell>
        <mxCell id="Xx-uTNzrVQw0hfMiKoDD-9" value="" style="endArrow=open;endFill=1;endSize=12;html=1;rounded=0;entryX=0.485;entryY=0.998;entryDx=0;entryDy=0;entryPerimeter=0;" parent="Vr8ciH7Do-Bv3Ef3Z92q-1" edge="1">
          <mxGeometry width="160" relative="1" as="geometry">
            <mxPoint x="345" y="39" as="sourcePoint" />
            <mxPoint x="344.79999999999995" y="-78" as="targetPoint" />
          </mxGeometry>
        </mxCell>
        <mxCell id="DdNft-dYW2IAD-9y-11q-1" value="" style="group" parent="1" vertex="1" connectable="0">
          <mxGeometry x="1419" y="54" width="570" height="323.3333333333333" as="geometry" />
        </mxCell>
        <mxCell id="DdNft-dYW2IAD-9y-11q-2" value="&lt;font style=&quot;font-size: 20px;&quot;&gt;&lt;i&gt;cond&lt;/i&gt;&lt;/font&gt;" style="swimlane;fontStyle=1;align=center;verticalAlign=top;childLayout=stackLayout;horizontal=1;startSize=37;horizontalStack=0;resizeParent=1;resizeParentMax=0;resizeLast=0;collapsible=1;marginBottom=0;whiteSpace=wrap;html=1;" parent="DdNft-dYW2IAD-9y-11q-1" vertex="1">
          <mxGeometry y="43.333333333333336" width="570" height="259.99555555555554" as="geometry" />
        </mxCell>
        <mxCell id="DdNft-dYW2IAD-9y-11q-3" value="&lt;font style=&quot;font-size: 20px;&quot;&gt;- m_cond: pthread_cond_t&lt;/font&gt;" style="text;strokeColor=none;fillColor=default;align=left;verticalAlign=top;spacingLeft=4;spacingRight=4;overflow=hidden;rotatable=0;points=[[0,0.5],[1,0.5]];portConstraint=eastwest;whiteSpace=wrap;html=1;" parent="DdNft-dYW2IAD-9y-11q-2" vertex="1">
          <mxGeometry y="37" width="570" height="33.62" as="geometry" />
        </mxCell>
        <mxCell id="DdNft-dYW2IAD-9y-11q-4" value="" style="line;strokeWidth=1;fillColor=none;align=left;verticalAlign=middle;spacingTop=-1;spacingLeft=3;spacingRight=3;rotatable=0;labelPosition=right;points=[];portConstraint=eastwest;strokeColor=inherit;" parent="DdNft-dYW2IAD-9y-11q-2" vertex="1">
          <mxGeometry y="70.62" width="570" height="11.555555555555555" as="geometry" />
        </mxCell>
        <mxCell id="DdNft-dYW2IAD-9y-11q-5" value="&lt;font style=&quot;font-size: 20px;&quot;&gt;+ cond()&lt;/font&gt;&lt;div&gt;&lt;font size=&quot;3&quot; style=&quot;&quot;&gt;+ ~cond()&lt;/font&gt;&lt;/div&gt;&lt;div&gt;&lt;font size=&quot;3&quot;&gt;+ wait(&lt;span style=&quot;background-color: initial;&quot;&gt;pthread_mutex_t *m_mutex&lt;/span&gt;&lt;span style=&quot;background-color: initial;&quot;&gt;): bool&lt;/span&gt;&lt;/font&gt;&lt;/div&gt;&lt;div&gt;&lt;font size=&quot;3&quot;&gt;+ timewait(&lt;span style=&quot;background-color: initial;&quot;&gt;pthread_mutex_t *m_mutex, struct timespec t&lt;/span&gt;&lt;span style=&quot;background-color: initial;&quot;&gt;): bool&lt;/span&gt;&lt;/font&gt;&lt;/div&gt;&lt;div&gt;&lt;font size=&quot;3&quot;&gt;+ signal(): bool&lt;/font&gt;&lt;/div&gt;&lt;div&gt;&lt;font size=&quot;3&quot;&gt;+ broadcast(): bool&lt;/font&gt;&lt;/div&gt;" style="text;strokeColor=none;fillColor=default;align=left;verticalAlign=top;spacingLeft=4;spacingRight=4;overflow=hidden;rotatable=0;points=[[0,0.5],[1,0.5]];portConstraint=eastwest;whiteSpace=wrap;html=1;" parent="DdNft-dYW2IAD-9y-11q-2" vertex="1">
          <mxGeometry y="82.17555555555556" width="570" height="177.82" as="geometry" />
        </mxCell>
        <mxCell id="DdNft-dYW2IAD-9y-11q-6" value="&lt;font style=&quot;font-size: 14px;&quot;&gt;// 使用RAII机制实现条件变量锁机制，实现多线程同步&lt;/font&gt;" style="text;html=1;align=center;verticalAlign=middle;resizable=0;points=[];autosize=1;strokeColor=none;fillColor=none;" parent="DdNft-dYW2IAD-9y-11q-1" vertex="1">
          <mxGeometry x="-20" width="360" height="30" as="geometry" />
        </mxCell>
        <mxCell id="Xx-uTNzrVQw0hfMiKoDD-1" value="" style="group" parent="1" vertex="1" connectable="0">
          <mxGeometry x="804" y="82" width="330" height="239.16666666666666" as="geometry" />
        </mxCell>
        <mxCell id="Xx-uTNzrVQw0hfMiKoDD-2" value="&lt;font style=&quot;font-size: 20px;&quot;&gt;&lt;i&gt;locker&lt;/i&gt;&lt;/font&gt;" style="swimlane;fontStyle=1;align=center;verticalAlign=top;childLayout=stackLayout;horizontal=1;startSize=31;horizontalStack=0;resizeParent=1;resizeParentMax=0;resizeLast=0;collapsible=1;marginBottom=0;whiteSpace=wrap;html=1;" parent="Xx-uTNzrVQw0hfMiKoDD-1" vertex="1">
          <mxGeometry y="39.166666666666664" width="280" height="205.00444444444446" as="geometry" />
        </mxCell>
        <mxCell id="Xx-uTNzrVQw0hfMiKoDD-3" value="&lt;font style=&quot;font-size: 20px;&quot;&gt;- m_mutex: pthread_mutex_t&lt;/font&gt;" style="text;strokeColor=none;fillColor=default;align=left;verticalAlign=top;spacingLeft=4;spacingRight=4;overflow=hidden;rotatable=0;points=[[0,0.5],[1,0.5]];portConstraint=eastwest;whiteSpace=wrap;html=1;" parent="Xx-uTNzrVQw0hfMiKoDD-2" vertex="1">
          <mxGeometry y="31" width="280" height="34" as="geometry" />
        </mxCell>
        <mxCell id="Xx-uTNzrVQw0hfMiKoDD-4" value="" style="line;strokeWidth=1;fillColor=none;align=left;verticalAlign=middle;spacingTop=-1;spacingLeft=3;spacingRight=3;rotatable=0;labelPosition=right;points=[];portConstraint=eastwest;strokeColor=inherit;" parent="Xx-uTNzrVQw0hfMiKoDD-2" vertex="1">
          <mxGeometry y="65" width="280" height="10.444444444444445" as="geometry" />
        </mxCell>
        <mxCell id="Xx-uTNzrVQw0hfMiKoDD-5" value="&lt;font style=&quot;font-size: 20px;&quot;&gt;+ locker()&lt;/font&gt;&lt;div&gt;&lt;font size=&quot;3&quot;&gt;+ ~locker()&lt;/font&gt;&lt;/div&gt;&lt;div&gt;&lt;font size=&quot;3&quot;&gt;+ lock(): bool&lt;/font&gt;&lt;/div&gt;&lt;div&gt;&lt;font size=&quot;3&quot;&gt;+ unlock(): bool&lt;/font&gt;&lt;/div&gt;&lt;div&gt;&lt;font size=&quot;3&quot;&gt;+ get(): pthread_mutex_t *&lt;/font&gt;&lt;/div&gt;" style="text;strokeColor=none;fillColor=default;align=left;verticalAlign=top;spacingLeft=4;spacingRight=4;overflow=hidden;rotatable=0;points=[[0,0.5],[1,0.5]];portConstraint=eastwest;whiteSpace=wrap;html=1;" parent="Xx-uTNzrVQw0hfMiKoDD-2" vertex="1">
          <mxGeometry y="75.44444444444444" width="280" height="129.56" as="geometry" />
        </mxCell>
        <mxCell id="Xx-uTNzrVQw0hfMiKoDD-6" value="&lt;font style=&quot;font-size: 14px;&quot;&gt;// 使用RAII机制实现互斥锁机制，以实现多线程同步&lt;/font&gt;" style="text;html=1;align=center;verticalAlign=middle;resizable=0;points=[];autosize=1;strokeColor=none;fillColor=none;" parent="Xx-uTNzrVQw0hfMiKoDD-1" vertex="1">
          <mxGeometry x="-10" width="340" height="30" as="geometry" />
        </mxCell>
        <mxCell id="Xx-uTNzrVQw0hfMiKoDD-7" value="" style="endArrow=open;endFill=1;endSize=12;html=1;rounded=0;entryX=0.485;entryY=0.998;entryDx=0;entryDy=0;entryPerimeter=0;" parent="1" target="Xx-uTNzrVQw0hfMiKoDD-5" edge="1">
          <mxGeometry width="160" relative="1" as="geometry">
            <mxPoint x="939.2" y="473" as="sourcePoint" />
            <mxPoint x="939.0000000000002" y="338.07803111111116" as="targetPoint" />
          </mxGeometry>
        </mxCell>
        <mxCell id="Xx-uTNzrVQw0hfMiKoDD-8" value="&lt;font style=&quot;font-size: 18px;&quot;&gt;关联关系&lt;/font&gt;" style="text;html=1;align=center;verticalAlign=middle;resizable=0;points=[];autosize=1;strokeColor=none;fillColor=none;" parent="1" vertex="1">
          <mxGeometry x="944" y="380" width="90" height="34" as="geometry" />
        </mxCell>
        <mxCell id="Xx-uTNzrVQw0hfMiKoDD-10" value="&lt;font style=&quot;font-size: 18px;&quot;&gt;关联关系&lt;/font&gt;" style="text;html=1;align=center;verticalAlign=middle;resizable=0;points=[];autosize=1;strokeColor=none;fillColor=none;" parent="1" vertex="1">
          <mxGeometry x="1766" y="393" width="90" height="34" as="geometry" />
        </mxCell>
        <mxCell id="Xx-uTNzrVQw0hfMiKoDD-11" value="" style="endArrow=open;endFill=1;endSize=12;html=1;rounded=0;entryX=0.982;entryY=0.204;entryDx=0;entryDy=0;entryPerimeter=0;exitX=0.002;exitY=0.209;exitDx=0;exitDy=0;exitPerimeter=0;" parent="1" source="Vr8ciH7Do-Bv3Ef3Z92q-3" target="Xx-uTNzrVQw0hfMiKoDD-5" edge="1">
          <mxGeometry width="160" relative="1" as="geometry">
            <mxPoint x="1233" y="414" as="sourcePoint" />
            <mxPoint x="1234" y="189" as="targetPoint" />
            <Array as="points">
              <mxPoint x="1255" y="533" />
              <mxPoint x="1255" y="223" />
            </Array>
          </mxGeometry>
        </mxCell>
        <mxCell id="Xx-uTNzrVQw0hfMiKoDD-12" value="&lt;font style=&quot;font-size: 18px;&quot;&gt;关联关系&lt;/font&gt;" style="text;html=1;align=center;verticalAlign=middle;resizable=0;points=[];autosize=1;strokeColor=none;fillColor=none;" parent="1" vertex="1">
          <mxGeometry x="1256" y="362" width="90" height="34" as="geometry" />
        </mxCell>
        <mxCell id="YlDWPmoqMtb_QKFYyrDm-1" value="1" style="endArrow=open;html=1;endSize=12;startArrow=diamondThin;startSize=14;startFill=1;edgeStyle=orthogonalEdgeStyle;align=left;verticalAlign=bottom;rounded=0;entryX=0.003;entryY=0.174;entryDx=0;entryDy=0;entryPerimeter=0;" parent="1" target="Vr8ciH7Do-Bv3Ef3Z92q-4" edge="1">
          <mxGeometry x="-1" y="3" relative="1" as="geometry">
            <mxPoint x="1169" y="726" as="sourcePoint" />
            <mxPoint x="1329" y="726" as="targetPoint" />
          </mxGeometry>
        </mxCell>
        <mxCell id="YlDWPmoqMtb_QKFYyrDm-3" value="&lt;font style=&quot;font-size: 18px;&quot;&gt;合成/组合关系&lt;/font&gt;" style="text;html=1;align=center;verticalAlign=middle;resizable=0;points=[];autosize=1;strokeColor=none;fillColor=none;" parent="1" vertex="1">
          <mxGeometry x="1234" y="672" width="131" height="34" as="geometry" />
        </mxCell>
      </root>
    </mxGraphModel>
  </diagram>
</mxfile>
